  0
SECTION
  2
HEADER
  9
$ACADVER
  1
AC1014
  9
$HANDSEED
  5
FFFF
  9
$MEASUREMENT
 70
     1
  0
ENDSEC
  0
SECTION
  2
TABLES
  0
TABLE
  2
VPORT
  5
8
330
0
100
AcDbSymbolTable
 70
     4
  0
VPORT
  5
2E
330
8
100
AcDbSymbolTableRecord
100
AcDbViewportTableRecord
  2
*ACTIVE
 70
     0
 10
0.0
 20
0.0
 11
1.0
 21
1.0
 12
210.0
 22
148.5
 13
0.0
 23
0.0
 14
10.0
 24
10.0
 15
10.0
 25
10.0
 16
0.0
 26
0.0
 36
1.0
 17
0.0
 27
0.0
 37
0.0
 40
341.0
 41
1.24
 42
50.0
 43
0.0
 44
0.0
 50
0.0
 51
0.0
 71
     0
 72
   100
 73
     1
 74
     3
 75
     0
 76
     0
 77
     0
 78
     0
  0
ENDTAB
  0
TABLE
  2
LTYPE
  5
5
330
0
100
AcDbSymbolTable
 70
     1
  0
LTYPE
  5
14
330
5
100
AcDbSymbolTableRecord
100
AcDbLinetypeTableRecord
  2
BYBLOCK
 70
     0
  3

 72
    65
 73
     0
 40
0.0
  0
LTYPE
  5
15
330
5
100
AcDbSymbolTableRecord
100
AcDbLinetypeTableRecord
  2
BYLAYER
 70
     0
  3

 72
    65
 73
     0
 40
0.0
  0
LTYPE
  5
16
330
5
100
AcDbSymbolTableRecord
100
AcDbLinetypeTableRecord
  2
CONTINUOUS
 70
     0
  3
Solid line
 72
    65
 73
     0
 40
0.0
  0
ENDTAB
  0
TABLE
  2
LAYER
  5
2
100
AcDbSymbolTable
 70
1
  0
LAYER
  5
50
100
AcDbSymbolTableRecord
100
AcDbLayerTableRecord
  2
0
 70
0
  6
CONTINUOUS
  0
ENDTAB
  0
TABLE
  2
STYLE
  5
3
330
0
100
AcDbSymbolTable
 70
     1
  0
STYLE
  5
11
330
3
100
AcDbSymbolTableRecord
100
AcDbTextStyleTableRecord
  2
STANDARD
 70
     0
 40
0.0
 41
1.0
 50
0.0
 71
     0
 42
2.5
  3
txt
  4

  0
ENDTAB
  0
TABLE
  2
VIEW
  5
6
330
0
100
AcDbSymbolTable
 70
     0
  0
ENDTAB
  0
TABLE
  2
UCS
  5
7
330
0
100
AcDbSymbolTable
 70
     0
  0
ENDTAB
  0
TABLE
  2
APPID
  5
9
330
0
100
AcDbSymbolTable
 70
     2
  0
APPID
  5
12
330
9
100
AcDbSymbolTableRecord
100
AcDbRegAppTableRecord
  2
ACAD
 70
     0
  0
ENDTAB
  0
TABLE
  2
DIMSTYLE
  5
A
330
0
100
AcDbSymbolTable
 70
     1
  0
DIMSTYLE
105
27
330
A
100
AcDbSymbolTableRecord
100
AcDbDimStyleTableRecord
  2
ISO-25
 70
     0
  3

  4

  5

  6

  7

 40
1.0
 41
2.5
 42
0.625
 43
3.75
 44
1.25
 45
0.0
 46
0.0
 47
0.0
 48
0.0
140
2.5
141
2.5
142
0.0
143
0.03937007874016
144
1.0
145
0.0
146
1.0
147
0.625
 71
     0
 72
     0
 73
     0
 74
     0
 75
     0
 76
     0
 77
     1
 78
     8
170
     0
171
     3
172
     1
173
     0
174
     0
175
     0
176
     0
177
     0
178
     0
270
     2
271
     2
272
     2
273
     2
274
     3
340
11
275
     0
280
     0
281
     0
282
     0
283
     0
284
     8
285
     0
286
     0
287
     3
288
     0
  0
ENDTAB
  0
TABLE
  2
BLOCK_RECORD
  5
1
330
0
100
AcDbSymbolTable
 70
     1
  0
BLOCK_RECORD
  5
1F
330
1
100
AcDbSymbolTableRecord
100
AcDbBlockTableRecord
  2
*MODEL_SPACE
  0
BLOCK_RECORD
  5
1B
330
1
100
AcDbSymbolTableRecord
100
AcDbBlockTableRecord
  2
*PAPER_SPACE
  0
ENDTAB
  0
ENDSEC
  0
SECTION
  2
BLOCKS
  0
BLOCK
  5
20
330
1F
100
AcDbEntity
  8
0
100
AcDbBlockBegin
  2
*MODEL_SPACE
 70
     0
 10
0.0
 20
0.0
 30
0.0
  3
*MODEL_SPACE
  1

  0
ENDBLK
  5
21
330
1F
100
AcDbEntity
  8
0
100
AcDbBlockEnd
  0
BLOCK
  5
1C
330
1B
100
AcDbEntity
 67
     1
  8
0
100
AcDbBlockBegin
  2
*PAPER_SPACE
  1

  0
ENDBLK
  5
1D
330
1B
100
AcDbEntity
 67
     1
  8
0
100
AcDbBlockEnd
  0
ENDSEC
  0
SECTION
  2
ENTITIES
  0
LWPOLYLINE
  5
100
100
AcDbEntity
  8
0
 62
7
100
AcDbPolyline
 90
80
 70
1
 10
0.966611
 20
0.974598
 30
0.0
 10
-0.000682
 20
1.948945
 30
0.0
 10
0.000153
 20
2.490298
 30
0.0
 10
0.000989
 20
3.031648
 30
0.0
 10
0.984477
 20
4.023225
 30
0.0
 10
1.967966
 20
5.014801
 30
0.0
 10
5.229209
 20
5.014832
 30
0.0
 10
8.490452
 20
5.014866
 30
0.0
 10
9.228686
 20
4.266091
 30
0.0
 10
9.966919
 20
3.517319
 30
0.0
 10
12.207462
 20
3.517319
 30
0.0
 10
14.448005
 20
3.517319
 30
0.0
 10
14.450235
 20
3.671116
 30
0.0
 10
14.452465
 20
3.824910
 30
0.0
 10
14.454694
 20
3.978707
 30
0.0
 10
14.456924
 20
4.132501
 30
0.0
 10
14.462023
 20
4.405167
 30
0.0
 10
14.468419
 20
4.608181
 30
0.0
 10
14.476109
 20
4.741494
 30
0.0
 10
14.485092
 20
4.805062
 30
0.0
 10
14.496737
 20
4.831365
 30
0.0
 10
14.514201
 20
4.860584
 30
0.0
 10
14.535119
 20
4.889153
 30
0.0
 10
14.557129
 20
4.913509
 30
0.0
 10
14.631912
 20
4.973989
 30
0.0
 10
14.793215
 20
5.003814
 30
0.0
 10
15.192542
 20
5.013720
 30
0.0
 10
15.981400
 20
5.014567
 30
0.0
 10
16.677577
 20
5.013720
 30
0.0
 10
17.060090
 20
5.009938
 30
0.0
 10
17.232228
 20
5.000907
 30
0.0
 10
17.297276
 20
4.984228
 30
0.0
 10
17.325912
 20
4.968875
 30
0.0
 10
17.356012
 20
4.949204
 30
0.0
 10
17.383997
 20
4.927755
 30
0.0
 10
17.406292
 20
4.907068
 30
0.0
 10
17.461705
 20
4.825568
 30
0.0
 10
17.489128
 20
4.566404
 30
0.0
 10
17.498379
 20
3.875185
 30
0.0
 10
17.499283
 20
2.497528
 30
0.0
 10
17.498408
 20
1.091729
 30
0.0
 10
17.487635
 20
0.394298
 30
0.0
 10
17.454755
 20
0.138359
 30
0.0
 10
17.387547
 20
0.057037
 30
0.0
 10
17.371370
 20
0.041854
 30
0.0
 10
17.355193
 20
0.026670
 30
0.0
 10
17.339016
 20
0.011486
 30
0.0
 10
17.322839
 20
-0.003697
 30
0.0
 10
16.986772
 20
-0.003697
 30
0.0
 10
16.650705
 20
-0.003697
 30
0.0
 10
16.314639
 20
-0.003697
 30
0.0
 10
15.978572
 20
-0.003697
 30
0.0
 10
15.642505
 20
-0.003697
 30
0.0
 10
15.306438
 20
-0.003697
 30
0.0
 10
14.970371
 20
-0.003697
 30
0.0
 10
14.634305
 20
-0.003697
 30
0.0
 10
14.618184
 20
0.010866
 30
0.0
 10
14.602063
 20
0.025428
 30
0.0
 10
14.585943
 20
0.039991
 30
0.0
 10
14.569822
 20
0.054554
 30
0.0
 10
14.543229
 20
0.081844
 30
0.0
 10
14.518483
 20
0.113067
 30
0.0
 10
14.498352
 20
0.144379
 30
0.0
 10
14.485599
 20
0.171924
 30
0.0
 10
14.476308
 20
0.235390
 30
0.0
 10
14.468510
 20
0.367194
 30
0.0
 10
14.462093
 20
0.569934
 30
0.0
 10
14.456948
 20
0.846221
 30
0.0
 10
14.454718
 20
1.000018
 30
0.0
 10
14.452489
 20
1.153812
 30
0.0
 10
14.450259
 20
1.307609
 30
0.0
 10
14.448029
 20
1.461403
 30
0.0
 10
12.213947
 20
1.465636
 30
0.0
 10
9.979864
 20
1.469870
 30
0.0
 10
9.244802
 20
0.733092
 30
0.0
 10
8.509739
 20
-0.003689
 30
0.0
 10
5.221835
 20
-0.001713
 30
0.0
 10
1.933930
 20
0.000262
 30
0.0
 10
0.966637
 20
0.974612
 30
0.0
 10
0.966611
 20
0.974598
 30
0.0
  0
ENDSEC
  0
SECTION
  2
OBJECTS
  0
DICTIONARY
  5
C
330
0
100
AcDbDictionary
  3
ACAD_GROUP
350
D
  3
ACAD_MLINESTYLE
350
17
  0
DICTIONARY
  5
D
330
C
100
AcDbDictionary
  0
DICTIONARY
  5
1A
330
C
100
AcDbDictionary
  0
DICTIONARY
  5
17
330
C
100
AcDbDictionary
  3
STANDARD
350
18
  0
DICTIONARY
  5
19
330
C
100
AcDbDictionary
  0
ENDSEC
  0
EOF
