  0
SECTION
  2
BLOCKS
  0
ENDSEC
  0
SECTION
  2
ENTITIES
  0
LINE
  8
0
 10
-0.0166016
 20
-2.92363
 11
-0.0117188
 21
-2.83476
  0
LINE
  8
0
 10
-0.0117188
 20
-2.83476
 11
-0.00683594
 21
-2.66679
  0
LINE
  8
0
 10
-0.00683594
 20
-2.66679
 11
-0.00195312
 21
-2.02129
  0
LINE
  8
0
 10
-0.00195312
 20
-2.02129
 11
0
 21
0.58905
  0
LINE
  8
0
 10
0
 20
0.58905
 11
-0.00195312
 21
1.64081
  0
LINE
  8
0
 10
-0.00195312
 20
1.64081
 11
-0.0078125
 21
2.71112
  0
LINE
  8
0
 10
-0.0078125
 20
2.71112
 11
-0.0107422
 21
2.88495
  0
LINE
  8
0
 10
-0.0107422
 20
2.88495
 11
-0.0136719
 21
2.94843
  0
LINE
  8
0
 10
-0.0136719
 20
2.94843
 11
-0.0683594
 21
2.9494
  0
LINE
  8
0
 10
-0.0683594
 20
2.9494
 11
-0.302734
 21
2.93085
  0
LINE
  8
0
 10
-0.302734
 20
2.93085
 11
-0.491211
 21
2.90741
  0
LINE
  8
0
 10
-0.491211
 20
2.90741
 11
-0.678711
 21
2.87323
  0
LINE
  8
0
 10
-0.678711
 20
2.87323
 11
-0.863281
 21
2.82733
  0
LINE
  8
0
 10
-0.863281
 20
2.82733
 11
-1.04297
 21
2.77069
  0
LINE
  8
0
 10
-1.04297
 20
2.77069
 11
-1.21484
 21
2.70624
  0
LINE
  8
0
 10
-1.21484
 20
2.70624
 11
-1.375
 21
2.633
  0
LINE
  8
0
 10
-1.375
 20
2.633
 11
-1.52344
 21
2.55194
  0
LINE
  8
0
 10
-1.52344
 20
2.55194
 11
-1.65527
 21
2.46503
  0
LINE
  8
0
 10
-1.65527
 20
2.46503
 11
-1.80273
 21
2.3537
  0
LINE
  8
0
 10
-1.80273
 20
2.3537
 11
-1.93262
 21
2.24921
  0
LINE
  8
0
 10
-1.93262
 20
2.24921
 11
-2.04785
 21
2.14667
  0
LINE
  8
0
 10
-2.04785
 20
2.14667
 11
-2.15234
 21
2.04218
  0
LINE
  8
0
 10
-2.15234
 20
2.04218
 11
-2.24902
 21
1.9328
  0
LINE
  8
0
 10
-2.24902
 20
1.9328
 11
-2.34277
 21
1.81268
  0
LINE
  8
0
 10
-2.34277
 20
1.81268
 11
-2.4375
 21
1.67987
  0
LINE
  8
0
 10
-2.4375
 20
1.67987
 11
-2.53516
 21
1.5285
  0
LINE
  8
0
 10
-2.53516
 20
1.5285
 11
-2.59668
 21
1.42206
  0
LINE
  8
0
 10
-2.59668
 20
1.42206
 11
-2.65723
 21
1.29999
  0
LINE
  8
0
 10
-2.65723
 20
1.29999
 11
-2.71582
 21
1.16718
  0
LINE
  8
0
 10
-2.71582
 20
1.16718
 11
-2.76953
 21
1.02655
  0
LINE
  8
0
 10
-2.76953
 20
1.02655
 11
-2.81738
 21
0.882019
  0
LINE
  8
0
 10
-2.81738
 20
0.882019
 11
-2.85938
 21
0.738464
  0
LINE
  8
0
 10
-2.85938
 20
0.738464
 11
-2.89258
 21
0.598816
  0
LINE
  8
0
 10
-2.89258
 20
0.598816
 11
-2.91699
 21
0.466003
  0
LINE
  8
0
 10
-2.91699
 20
0.466003
 11
-2.92676
 21
0.379089
  0
LINE
  8
0
 10
-2.92676
 20
0.379089
 11
-2.93359
 21
0.270691
  0
LINE
  8
0
 10
-2.93359
 20
0.270691
 11
-2.9375
 21
0.148621
  0
LINE
  8
0
 10
-2.9375
 20
0.148621
 11
-2.9375
 21
-0.110153
  0
LINE
  8
0
 10
-2.9375
 20
-0.110153
 11
-2.93359
 21
-0.2332
  0
LINE
  8
0
 10
-2.93359
 20
-0.2332
 11
-2.92676
 21
-0.341599
  0
LINE
  8
0
 10
-2.92676
 20
-0.341599
 11
-2.91699
 21
-0.430466
  0
LINE
  8
0
 10
-2.91699
 20
-0.430466
 11
-2.88477
 21
-0.610153
  0
LINE
  8
0
 10
-2.88477
 20
-0.610153
 11
-2.83789
 21
-0.791794
  0
LINE
  8
0
 10
-2.83789
 20
-0.791794
 11
-2.7793
 21
-0.973434
  0
LINE
  8
0
 10
-2.7793
 20
-0.973434
 11
-2.70801
 21
-1.15312
  0
LINE
  8
0
 10
-2.70801
 20
-1.15312
 11
-2.625
 21
-1.32988
  0
LINE
  8
0
 10
-2.625
 20
-1.32988
 11
-2.53223
 21
-1.50273
  0
LINE
  8
0
 10
-2.53223
 20
-1.50273
 11
-2.42871
 21
-1.66777
  0
LINE
  8
0
 10
-2.42871
 20
-1.66777
 11
-2.31543
 21
-1.82597
  0
LINE
  8
0
 10
-2.31543
 20
-1.82597
 11
-2.27148
 21
-1.87871
  0
LINE
  8
0
 10
-2.27148
 20
-1.87871
 11
-2.13867
 21
-2.02129
  0
LINE
  8
0
 10
-2.13867
 20
-2.02129
 11
-2.06055
 21
-2.09941
  0
LINE
  8
0
 10
-2.06055
 20
-2.09941
 11
-1.90918
 21
-2.24394
  0
LINE
  8
0
 10
-1.90918
 20
-2.24394
 11
-1.84863
 21
-2.29863
  0
LINE
  8
0
 10
-1.84863
 20
-2.29863
 11
-1.80469
 21
-2.33281
  0
LINE
  8
0
 10
-1.80469
 20
-2.33281
 11
-1.64453
 21
-2.44218
  0
LINE
  8
0
 10
-1.64453
 20
-2.44218
 11
-1.50781
 21
-2.533
  0
LINE
  8
0
 10
-1.50781
 20
-2.533
 11
-1.39355
 21
-2.60136
  0
LINE
  8
0
 10
-1.39355
 20
-2.60136
 11
-1.33301
 21
-2.63164
  0
LINE
  8
0
 10
-1.33301
 20
-2.63164
 11
-1.16992
 21
-2.70293
  0
LINE
  8
0
 10
-1.16992
 20
-2.70293
 11
-0.979492
 21
-2.77422
  0
LINE
  8
0
 10
-0.979492
 20
-2.77422
 11
-0.885742
 21
-2.80644
  0
LINE
  8
0
 10
-0.885742
 20
-2.80644
 11
-0.798828
 21
-2.83379
  0
LINE
  8
0
 10
-0.798828
 20
-2.83379
 11
-0.723633
 21
-2.85332
  0
LINE
  8
0
 10
-0.723633
 20
-2.85332
 11
-0.649414
 21
-2.86992
  0
LINE
  8
0
 10
-0.649414
 20
-2.86992
 11
-0.551758
 21
-2.88652
  0
LINE
  8
0
 10
-0.551758
 20
-2.88652
 11
-0.326172
 21
-2.9207
  0
LINE
  8
0
 10
-0.326172
 20
-2.9207
 11
-0.124023
 21
-2.94511
  0
LINE
  8
0
 10
-0.124023
 20
-2.94511
 11
-0.0566406
 21
-2.95097
  0
LINE
  8
0
 10
-0.0566406
 20
-2.95097
 11
-0.0234375
 21
-2.95097
  0
LINE
  8
0
 10
-0.0234375
 20
-2.95097
 11
-0.0166016
 21
-2.92363
  0
ENDSEC
  0
SECTION
  2
OBJECTS
  0
DICTIONARY
  0
ENDSEC
  0
EOF
