  0
SECTION
  2
HEADER
  9
$ACADVER
  1
AC1014
  9
$HANDSEED
  5
FFFF
  9
$MEASUREMENT
 70
     1
  0
ENDSEC
  0
SECTION
  2
TABLES
  0
TABLE
  2
VPORT
  5
8
330
0
100
AcDbSymbolTable
 70
     4
  0
VPORT
  5
2E
330
8
100
AcDbSymbolTableRecord
100
AcDbViewportTableRecord
  2
*ACTIVE
 70
     0
 10
0.0
 20
0.0
 11
1.0
 21
1.0
 12
210.0
 22
148.5
 13
0.0
 23
0.0
 14
10.0
 24
10.0
 15
10.0
 25
10.0
 16
0.0
 26
0.0
 36
1.0
 17
0.0
 27
0.0
 37
0.0
 40
341.0
 41
1.24
 42
50.0
 43
0.0
 44
0.0
 50
0.0
 51
0.0
 71
     0
 72
   100
 73
     1
 74
     3
 75
     0
 76
     0
 77
     0
 78
     0
  0
ENDTAB
  0
TABLE
  2
LTYPE
  5
5
330
0
100
AcDbSymbolTable
 70
     1
  0
LTYPE
  5
14
330
5
100
AcDbSymbolTableRecord
100
AcDbLinetypeTableRecord
  2
BYBLOCK
 70
     0
  3

 72
    65
 73
     0
 40
0.0
  0
LTYPE
  5
15
330
5
100
AcDbSymbolTableRecord
100
AcDbLinetypeTableRecord
  2
BYLAYER
 70
     0
  3

 72
    65
 73
     0
 40
0.0
  0
LTYPE
  5
16
330
5
100
AcDbSymbolTableRecord
100
AcDbLinetypeTableRecord
  2
CONTINUOUS
 70
     0
  3
Solid line
 72
    65
 73
     0
 40
0.0
  0
ENDTAB
  0
TABLE
  2
LAYER
  5
2
100
AcDbSymbolTable
 70
2
  0
LAYER
  5
50
100
AcDbSymbolTableRecord
100
AcDbLayerTableRecord
  2
0
 70
0
  6
CONTINUOUS
  0
LAYER
  5
51
100
AcDbSymbolTableRecord
100
AcDbLayerTableRecord
  2
Calque_1
 70
0
  6
CONTINUOUS
  0
ENDTAB
  0
TABLE
  2
STYLE
  5
3
330
0
100
AcDbSymbolTable
 70
     1
  0
STYLE
  5
11
330
3
100
AcDbSymbolTableRecord
100
AcDbTextStyleTableRecord
  2
STANDARD
 70
     0
 40
0.0
 41
1.0
 50
0.0
 71
     0
 42
2.5
  3
txt
  4

  0
ENDTAB
  0
TABLE
  2
VIEW
  5
6
330
0
100
AcDbSymbolTable
 70
     0
  0
ENDTAB
  0
TABLE
  2
UCS
  5
7
330
0
100
AcDbSymbolTable
 70
     0
  0
ENDTAB
  0
TABLE
  2
APPID
  5
9
330
0
100
AcDbSymbolTable
 70
     2
  0
APPID
  5
12
330
9
100
AcDbSymbolTableRecord
100
AcDbRegAppTableRecord
  2
ACAD
 70
     0
  0
ENDTAB
  0
TABLE
  2
DIMSTYLE
  5
A
330
0
100
AcDbSymbolTable
 70
     1
  0
DIMSTYLE
105
27
330
A
100
AcDbSymbolTableRecord
100
AcDbDimStyleTableRecord
  2
ISO-25
 70
     0
  3

  4

  5

  6

  7

 40
1.0
 41
2.5
 42
0.625
 43
3.75
 44
1.25
 45
0.0
 46
0.0
 47
0.0
 48
0.0
140
2.5
141
2.5
142
0.0
143
0.03937007874016
144
1.0
145
0.0
146
1.0
147
0.625
 71
     0
 72
     0
 73
     0
 74
     0
 75
     0
 76
     0
 77
     1
 78
     8
170
     0
171
     3
172
     1
173
     0
174
     0
175
     0
176
     0
177
     0
178
     0
270
     2
271
     2
272
     2
273
     2
274
     3
340
11
275
     0
280
     0
281
     0
282
     0
283
     0
284
     8
285
     0
286
     0
287
     3
288
     0
  0
ENDTAB
  0
TABLE
  2
BLOCK_RECORD
  5
1
330
0
100
AcDbSymbolTable
 70
     1
  0
BLOCK_RECORD
  5
1F
330
1
100
AcDbSymbolTableRecord
100
AcDbBlockTableRecord
  2
*MODEL_SPACE
  0
BLOCK_RECORD
  5
1B
330
1
100
AcDbSymbolTableRecord
100
AcDbBlockTableRecord
  2
*PAPER_SPACE
  0
ENDTAB
  0
ENDSEC
  0
SECTION
  2
BLOCKS
  0
BLOCK
  5
20
330
1F
100
AcDbEntity
  8
0
100
AcDbBlockBegin
  2
*MODEL_SPACE
 70
     0
 10
0.0
 20
0.0
 30
0.0
  3
*MODEL_SPACE
  1

  0
ENDBLK
  5
21
330
1F
100
AcDbEntity
  8
0
100
AcDbBlockEnd
  0
BLOCK
  5
1C
330
1B
100
AcDbEntity
 67
     1
  8
0
100
AcDbBlockBegin
  2
*PAPER_SPACE
  1

  0
ENDBLK
  5
1D
330
1B
100
AcDbEntity
 67
     1
  8
0
100
AcDbBlockEnd
  0
ENDSEC
  0
SECTION
  2
ENTITIES
  0
LWPOLYLINE
  5
100
100
AcDbEntity
  8
Calque_1
 62
7
100
AcDbPolyline
 90
188
 70
1
 10
2.880609
 20
0.352497
 30
0.0
 10
2.873689
 20
0.341490
 30
0.0
 10
2.866947
 20
0.331330
 30
0.0
 10
2.859985
 20
0.322299
 30
0.0
 10
2.852401
 20
0.313832
 30
0.0
 10
2.843796
 20
0.305930
 30
0.0
 10
2.833769
 20
0.298310
 30
0.0
 10
2.821920
 20
0.290690
 30
0.0
 10
2.807848
 20
0.283070
 30
0.0
 10
2.791151
 20
0.274886
 30
0.0
 10
2.771431
 20
0.266137
 30
0.0
 10
2.748285
 20
0.256824
 30
0.0
 10
2.721314
 20
0.246381
 30
0.0
 10
2.567164
 20
0.191038
 30
0.0
 10
2.356332
 20
0.120595
 30
0.0
 10
2.186052
 20
0.076653
 30
0.0
 10
2.007769
 20
0.049277
 30
0.0
 10
1.772930
 20
0.028675
 30
0.0
 10
1.581268
 20
0.015693
 30
0.0
 10
1.439280
 20
0.011460
 30
0.0
 10
1.300758
 20
0.015693
 30
0.0
 10
1.119493
 20
0.028675
 30
0.0
 10
0.887295
 20
0.051253
 30
0.0
 10
0.701741
 20
0.082721
 30
0.0
 10
0.519491
 20
0.132702
 30
0.0
 10
0.297206
 20
0.210850
 30
0.0
 10
0.258403
 20
0.225243
 30
0.0
 10
0.224311
 20
0.237943
 30
0.0
 10
0.194566
 20
0.249232
 30
0.0
 10
0.168804
 20
0.259392
 30
0.0
 10
0.146660
 20
0.268423
 30
0.0
 10
0.127771
 20
0.276607
 30
0.0
 10
0.111772
 20
0.284227
 30
0.0
 10
0.098300
 20
0.291565
 30
0.0
 10
0.086989
 20
0.298621
 30
0.0
 10
0.077477
 20
0.305676
 30
0.0
 10
0.069398
 20
0.313014
 30
0.0
 10
0.062390
 20
0.320916
 30
0.0
 10
0.056086
 20
0.329383
 30
0.0
 10
0.050125
 20
0.338978
 30
0.0
 10
0.044141
 20
0.349703
 30
0.0
 10
0.037769
 20
0.361556
 30
0.0
 10
0.035509
 20
0.365790
 30
0.0
 10
0.033249
 20
0.370023
 30
0.0
 10
0.030989
 20
0.374256
 30
0.0
 10
0.028729
 20
0.378490
 30
0.0
 10
0.026469
 20
0.382723
 30
0.0
 10
0.024209
 20
0.386956
 30
0.0
 10
0.021949
 20
0.391190
 30
0.0
 10
0.019689
 20
0.395423
 30
0.0
 10
0.017429
 20
0.399656
 30
0.0
 10
0.015169
 20
0.403890
 30
0.0
 10
0.012909
 20
0.408123
 30
0.0
 10
0.010648
 20
0.412356
 30
0.0
 10
0.008388
 20
0.416590
 30
0.0
 10
0.006128
 20
0.420823
 30
0.0
 10
0.003868
 20
0.425056
 30
0.0
 10
0.001608
 20
0.429290
 30
0.0
 10
0.001608
 20
0.659555
 30
0.0
 10
0.001608
 20
0.889792
 30
0.0
 10
0.001608
 20
1.120057
 30
0.0
 10
0.001608
 20
1.350322
 30
0.0
 10
0.001608
 20
2.271354
 30
0.0
 10
0.024547
 20
2.319558
 30
0.0
 10
0.047486
 20
2.367761
 30
0.0
 10
0.070425
 20
2.415965
 30
0.0
 10
0.093364
 20
2.464168
 30
0.0
 10
0.205176
 20
2.744528
 30
0.0
 10
0.272122
 20
3.023166
 30
0.0
 10
0.294817
 20
3.303836
 30
0.0
 10
0.273876
 20
3.590461
 30
0.0
 10
0.240973
 20
3.765410
 30
0.0
 10
0.194378
 20
3.930792
 30
0.0
 10
0.132810
 20
4.090502
 30
0.0
 10
0.054994
 20
4.248321
 30
0.0
 10
0.041647
 20
4.272874
 30
0.0
 10
0.028301
 20
4.297427
 30
0.0
 10
0.014954
 20
4.321981
 30
0.0
 10
0.001608
 20
4.346534
 30
0.0
 10
0.001670
 20
5.283371
 30
0.0
 10
0.001829
 20
5.919302
 30
0.0
 10
0.023476
 20
6.225570
 30
0.0
 10
0.098540
 20
6.341591
 30
0.0
 10
0.258950
 20
6.406700
 30
0.0
 10
0.273846
 20
6.412626
 30
0.0
 10
0.290401
 20
6.418835
 30
0.0
 10
0.308441
 20
6.425326
 30
0.0
 10
0.327792
 20
6.432100
 30
0.0
 10
0.348280
 20
6.439155
 30
0.0
 10
0.369730
 20
6.446493
 30
0.0
 10
0.391968
 20
6.453831
 30
0.0
 10
0.414819
 20
6.461169
 30
0.0
 10
0.508878
 20
6.490153
 30
0.0
 10
0.598818
 20
6.515553
 30
0.0
 10
0.716184
 20
6.544283
 30
0.0
 10
0.826952
 20
6.564321
 30
0.0
 10
0.958843
 20
6.579561
 30
0.0
 10
1.139579
 20
6.593954
 30
0.0
 10
1.330282
 20
6.606372
 30
0.0
 10
1.473121
 20
6.610323
 30
0.0
 10
1.612548
 20
6.606090
 30
0.0
 10
1.793016
 20
6.593672
 30
0.0
 10
2.066651
 20
6.564293
 30
0.0
 10
2.307563
 20
6.517500
 30
0.0
 10
2.546480
 20
6.445703
 30
0.0
 10
2.814128
 20
6.341337
 30
0.0
 10
2.816352
 20
6.341337
 30
0.0
 10
2.818903
 20
6.338515
 30
0.0
 10
2.821755
 20
6.335693
 30
0.0
 10
2.824876
 20
6.332588
 30
0.0
 10
2.828237
 20
6.329202
 30
0.0
 10
2.831807
 20
6.325250
 30
0.0
 10
2.835558
 20
6.320735
 30
0.0
 10
2.839458
 20
6.315937
 30
0.0
 10
2.843480
 20
6.310857
 30
0.0
 10
2.847589
 20
6.305213
 30
0.0
 10
2.851760
 20
6.299286
 30
0.0
 10
2.855963
 20
6.293077
 30
0.0
 10
2.860165
 20
6.286868
 30
0.0
 10
2.864336
 20
6.280377
 30
0.0
 10
2.868448
 20
6.273604
 30
0.0
 10
2.872473
 20
6.266830
 30
0.0
 10
2.874872
 20
6.262879
 30
0.0
 10
2.877271
 20
6.258646
 30
0.0
 10
2.879669
 20
6.254695
 30
0.0
 10
2.882068
 20
6.250462
 30
0.0
 10
2.884467
 20
6.246510
 30
0.0
 10
2.886866
 20
6.242559
 30
0.0
 10
2.889265
 20
6.238326
 30
0.0
 10
2.891664
 20
6.234375
 30
0.0
 10
2.894063
 20
6.230424
 30
0.0
 10
2.896462
 20
6.226190
 30
0.0
 10
2.898861
 20
6.222239
 30
0.0
 10
2.901259
 20
6.218006
 30
0.0
 10
2.903658
 20
6.214055
 30
0.0
 10
2.906057
 20
6.210104
 30
0.0
 10
2.908456
 20
6.205870
 30
0.0
 10
2.910855
 20
6.201919
 30
0.0
 10
2.910855
 20
5.969622
 30
0.0
 10
2.910855
 20
5.737353
 30
0.0
 10
2.910855
 20
5.505056
 30
0.0
 10
2.910855
 20
5.272787
 30
0.0
 10
2.910855
 20
4.343655
 30
0.0
 10
2.901251
 20
4.324746
 30
0.0
 10
2.891647
 20
4.305838
 30
0.0
 10
2.882043
 20
4.286929
 30
0.0
 10
2.872439
 20
4.268020
 30
0.0
 10
2.862835
 20
4.249111
 30
0.0
 10
2.853231
 20
4.230202
 30
0.0
 10
2.843627
 20
4.211293
 30
0.0
 10
2.834023
 20
4.192384
 30
0.0
 10
2.738323
 20
3.973690
 30
0.0
 10
2.670584
 20
3.749295
 30
0.0
 10
2.630789
 20
3.521034
 30
0.0
 10
2.618921
 20
3.290712
 30
0.0
 10
2.634964
 20
3.060222
 30
0.0
 10
2.678900
 20
2.831396
 30
0.0
 10
2.750714
 20
2.606013
 30
0.0
 10
2.850389
 20
2.385993
 30
0.0
 10
2.857947
 20
2.371599
 30
0.0
 10
2.865505
 20
2.357206
 30
0.0
 10
2.873065
 20
2.342813
 30
0.0
 10
2.880623
 20
2.328419
 30
0.0
 10
2.888184
 20
2.314026
 30
0.0
 10
2.895745
 20
2.299633
 30
0.0
 10
2.903303
 20
2.285239
 30
0.0
 10
2.910863
 20
2.270846
 30
0.0
 10
2.910863
 20
1.336070
 30
0.0
 10
2.910214
 20
0.810036
 30
0.0
 10
2.906610
 20
0.524935
 30
0.0
 10
2.897562
 20
0.399318
 30
0.0
 10
2.880578
 20
0.351707
 30
0.0
 10
2.880574
 20
0.351707
 30
0.0
 10
2.880570
 20
0.351707
 30
0.0
 10
2.880566
 20
0.351707
 30
0.0
 10
2.880563
 20
0.351678
 30
0.0
 10
2.880559
 20
0.351678
 30
0.0
 10
2.880555
 20
0.351678
 30
0.0
 10
2.880551
 20
0.351678
 30
0.0
 10
2.880547
 20
0.351678
 30
0.0
 10
2.880543
 20
0.351678
 30
0.0
 10
2.880540
 20
0.351678
 30
0.0
 10
2.880536
 20
0.351678
 30
0.0
 10
2.880532
 20
0.351650
 30
0.0
 10
2.880528
 20
0.351650
 30
0.0
 10
2.880524
 20
0.351650
 30
0.0
 10
2.880520
 20
0.351650
 30
0.0
 10
2.880609
 20
0.352497
 30
0.0
  0
ENDSEC
  0
SECTION
  2
OBJECTS
  0
DICTIONARY
  5
C
330
0
100
AcDbDictionary
  3
ACAD_GROUP
350
D
  3
ACAD_MLINESTYLE
350
17
  0
DICTIONARY
  5
D
330
C
100
AcDbDictionary
  0
DICTIONARY
  5
1A
330
C
100
AcDbDictionary
  0
DICTIONARY
  5
17
330
C
100
AcDbDictionary
  3
STANDARD
350
18
  0
DICTIONARY
  5
19
330
C
100
AcDbDictionary
  0
ENDSEC
  0
EOF
