  0
SECTION
  2
HEADER
  9
$ACADVER
  1
AC1014
  9
$HANDSEED
  5
FFFF
  9
$MEASUREMENT
 70
     1
  0
ENDSEC
  0
SECTION
  2
TABLES
  0
TABLE
  2
VPORT
  5
8
330
0
100
AcDbSymbolTable
 70
     4
  0
VPORT
  5
2E
330
8
100
AcDbSymbolTableRecord
100
AcDbViewportTableRecord
  2
*ACTIVE
 70
     0
 10
0.0
 20
0.0
 11
1.0
 21
1.0
 12
210.0
 22
148.5
 13
0.0
 23
0.0
 14
10.0
 24
10.0
 15
10.0
 25
10.0
 16
0.0
 26
0.0
 36
1.0
 17
0.0
 27
0.0
 37
0.0
 40
341.0
 41
1.24
 42
50.0
 43
0.0
 44
0.0
 50
0.0
 51
0.0
 71
     0
 72
   100
 73
     1
 74
     3
 75
     0
 76
     0
 77
     0
 78
     0
  0
ENDTAB
  0
TABLE
  2
LTYPE
  5
5
330
0
100
AcDbSymbolTable
 70
     1
  0
LTYPE
  5
14
330
5
100
AcDbSymbolTableRecord
100
AcDbLinetypeTableRecord
  2
BYBLOCK
 70
     0
  3

 72
    65
 73
     0
 40
0.0
  0
LTYPE
  5
15
330
5
100
AcDbSymbolTableRecord
100
AcDbLinetypeTableRecord
  2
BYLAYER
 70
     0
  3

 72
    65
 73
     0
 40
0.0
  0
LTYPE
  5
16
330
5
100
AcDbSymbolTableRecord
100
AcDbLinetypeTableRecord
  2
CONTINUOUS
 70
     0
  3
Solid line
 72
    65
 73
     0
 40
0.0
  0
ENDTAB
  0
TABLE
  2
LAYER
  5
2
100
AcDbSymbolTable
 70
2
  0
LAYER
  5
50
100
AcDbSymbolTableRecord
100
AcDbLayerTableRecord
  2
0
 70
0
  6
CONTINUOUS
  0
LAYER
  5
51
100
AcDbSymbolTableRecord
100
AcDbLayerTableRecord
  2
Calque_1
 70
0
  6
CONTINUOUS
  0
ENDTAB
  0
TABLE
  2
STYLE
  5
3
330
0
100
AcDbSymbolTable
 70
     1
  0
STYLE
  5
11
330
3
100
AcDbSymbolTableRecord
100
AcDbTextStyleTableRecord
  2
STANDARD
 70
     0
 40
0.0
 41
1.0
 50
0.0
 71
     0
 42
2.5
  3
txt
  4

  0
ENDTAB
  0
TABLE
  2
VIEW
  5
6
330
0
100
AcDbSymbolTable
 70
     0
  0
ENDTAB
  0
TABLE
  2
UCS
  5
7
330
0
100
AcDbSymbolTable
 70
     0
  0
ENDTAB
  0
TABLE
  2
APPID
  5
9
330
0
100
AcDbSymbolTable
 70
     2
  0
APPID
  5
12
330
9
100
AcDbSymbolTableRecord
100
AcDbRegAppTableRecord
  2
ACAD
 70
     0
  0
ENDTAB
  0
TABLE
  2
DIMSTYLE
  5
A
330
0
100
AcDbSymbolTable
 70
     1
  0
DIMSTYLE
105
27
330
A
100
AcDbSymbolTableRecord
100
AcDbDimStyleTableRecord
  2
ISO-25
 70
     0
  3

  4

  5

  6

  7

 40
1.0
 41
2.5
 42
0.625
 43
3.75
 44
1.25
 45
0.0
 46
0.0
 47
0.0
 48
0.0
140
2.5
141
2.5
142
0.0
143
0.03937007874016
144
1.0
145
0.0
146
1.0
147
0.625
 71
     0
 72
     0
 73
     0
 74
     0
 75
     0
 76
     0
 77
     1
 78
     8
170
     0
171
     3
172
     1
173
     0
174
     0
175
     0
176
     0
177
     0
178
     0
270
     2
271
     2
272
     2
273
     2
274
     3
340
11
275
     0
280
     0
281
     0
282
     0
283
     0
284
     8
285
     0
286
     0
287
     3
288
     0
  0
ENDTAB
  0
TABLE
  2
BLOCK_RECORD
  5
1
330
0
100
AcDbSymbolTable
 70
     1
  0
BLOCK_RECORD
  5
1F
330
1
100
AcDbSymbolTableRecord
100
AcDbBlockTableRecord
  2
*MODEL_SPACE
  0
BLOCK_RECORD
  5
1B
330
1
100
AcDbSymbolTableRecord
100
AcDbBlockTableRecord
  2
*PAPER_SPACE
  0
ENDTAB
  0
ENDSEC
  0
SECTION
  2
BLOCKS
  0
BLOCK
  5
20
330
1F
100
AcDbEntity
  8
0
100
AcDbBlockBegin
  2
*MODEL_SPACE
 70
     0
 10
0.0
 20
0.0
 30
0.0
  3
*MODEL_SPACE
  1

  0
ENDBLK
  5
21
330
1F
100
AcDbEntity
  8
0
100
AcDbBlockEnd
  0
BLOCK
  5
1C
330
1B
100
AcDbEntity
 67
     1
  8
0
100
AcDbBlockBegin
  2
*PAPER_SPACE
  1

  0
ENDBLK
  5
1D
330
1B
100
AcDbEntity
 67
     1
  8
0
100
AcDbBlockEnd
  0
ENDSEC
  0
SECTION
  2
ENTITIES
  0
LWPOLYLINE
  5
100
100
AcDbEntity
  8
Calque_1
 62
7
100
AcDbPolyline
 90
185
 70
1
 10
1.430160
 20
0.032654
 30
0.0
 10
1.355621
 20
0.040557
 30
0.0
 10
1.281082
 20
0.048459
 30
0.0
 10
1.206542
 20
0.056361
 30
0.0
 10
1.132003
 20
0.064263
 30
0.0
 10
1.058287
 20
0.087970
 30
0.0
 10
0.984571
 20
0.111394
 30
0.0
 10
0.910855
 20
0.134819
 30
0.0
 10
0.837139
 20
0.158526
 30
0.0
 10
0.763423
 20
0.182232
 30
0.0
 10
0.689706
 20
0.205657
 30
0.0
 10
0.615990
 20
0.229081
 30
0.0
 10
0.542274
 20
0.252788
 30
0.0
 10
0.476716
 20
0.290041
 30
0.0
 10
0.411157
 20
0.327294
 30
0.0
 10
0.345599
 20
0.364548
 30
0.0
 10
0.280040
 20
0.401801
 30
0.0
 10
0.177528
 20
0.460221
 30
0.0
 10
0.092263
 20
0.509158
 30
0.0
 10
0.033137
 20
0.543477
 30
0.0
 10
0.009042
 20
0.558152
 30
0.0
 10
0.004603
 20
0.581859
 30
0.0
 10
0.001931
 20
0.659865
 30
0.0
 10
0.000623
 20
0.815906
 30
0.0
 10
0.000276
 20
1.073603
 30
0.0
 10
0.000579
 20
1.346258
 30
0.0
 10
0.001936
 20
1.500633
 30
0.0
 10
0.005022
 20
1.570681
 30
0.0
 10
0.010509
 20
1.590436
 30
0.0
 10
0.068444
 20
1.624642
 30
0.0
 10
0.218623
 20
1.711651
 30
0.0
 10
0.438270
 20
1.838312
 30
0.0
 10
0.704611
 20
1.991390
 30
0.0
 10
0.875577
 20
2.089490
 30
0.0
 10
1.046544
 20
2.187619
 30
0.0
 10
1.217511
 20
2.285719
 30
0.0
 10
1.388478
 20
2.383848
 30
0.0
 10
1.388478
 20
2.532381
 30
0.0
 10
1.388478
 20
2.680915
 30
0.0
 10
1.388478
 20
2.829448
 30
0.0
 10
1.388478
 20
2.977982
 30
0.0
 10
1.388478
 20
3.126516
 30
0.0
 10
1.388478
 20
3.275049
 30
0.0
 10
1.388478
 20
3.423583
 30
0.0
 10
1.388478
 20
3.572116
 30
0.0
 10
1.217593
 20
3.670188
 30
0.0
 10
1.046708
 20
3.768261
 30
0.0
 10
0.875823
 20
3.866333
 30
0.0
 10
0.704938
 20
3.964405
 30
0.0
 10
0.438699
 20
4.117426
 30
0.0
 10
0.219085
 20
4.244059
 30
0.0
 10
0.068873
 20
4.331125
 30
0.0
 10
0.010837
 20
4.365499
 30
0.0
 10
0.005118
 20
4.384408
 30
0.0
 10
0.001940
 20
4.453045
 30
0.0
 10
0.000570
 20
4.607279
 30
0.0
 10
0.000276
 20
4.882897
 30
0.0
 10
0.000276
 20
5.010038
 30
0.0
 10
0.000276
 20
5.137151
 30
0.0
 10
0.000276
 20
5.264292
 30
0.0
 10
0.000276
 20
5.391434
 30
0.0
 10
0.004684
 20
5.394538
 30
0.0
 10
0.009092
 20
5.397642
 30
0.0
 10
0.013501
 20
5.400747
 30
0.0
 10
0.017909
 20
5.403851
 30
0.0
 10
0.044738
 20
5.419938
 30
0.0
 10
0.104755
 20
5.454651
 30
0.0
 10
0.189069
 20
5.502883
 30
0.0
 10
0.288794
 20
5.559525
 30
0.0
 10
0.352107
 20
5.595367
 30
0.0
 10
0.415420
 20
5.631210
 30
0.0
 10
0.478733
 20
5.667080
 30
0.0
 10
0.542045
 20
5.702922
 30
0.0
 10
0.615790
 20
5.726629
 30
0.0
 10
0.689534
 20
5.750336
 30
0.0
 10
0.763278
 20
5.774042
 30
0.0
 10
0.837022
 20
5.797749
 30
0.0
 10
0.910766
 20
5.821456
 30
0.0
 10
0.984510
 20
5.845162
 30
0.0
 10
1.058254
 20
5.868869
 30
0.0
 10
1.131998
 20
5.892576
 30
0.0
 10
1.209110
 20
5.900478
 30
0.0
 10
1.286222
 20
5.908380
 30
0.0
 10
1.363333
 20
5.916282
 30
0.0
 10
1.440445
 20
5.924184
 30
0.0
 10
1.517557
 20
5.932087
 30
0.0
 10
1.594669
 20
5.939989
 30
0.0
 10
1.671781
 20
5.947891
 30
0.0
 10
1.748893
 20
5.955793
 30
0.0
 10
1.825670
 20
5.947891
 30
0.0
 10
1.902446
 20
5.939989
 30
0.0
 10
1.979222
 20
5.932087
 30
0.0
 10
2.055999
 20
5.924184
 30
0.0
 10
2.132776
 20
5.916282
 30
0.0
 10
2.209552
 20
5.908380
 30
0.0
 10
2.286329
 20
5.900478
 30
0.0
 10
2.363105
 20
5.892576
 30
0.0
 10
2.436844
 20
5.869151
 30
0.0
 10
2.510582
 20
5.845727
 30
0.0
 10
2.584320
 20
5.822302
 30
0.0
 10
2.658058
 20
5.798596
 30
0.0
 10
2.731796
 20
5.775171
 30
0.0
 10
2.805535
 20
5.751747
 30
0.0
 10
2.879273
 20
5.728322
 30
0.0
 10
2.953011
 20
5.704898
 30
0.0
 10
3.021139
 20
5.666233
 30
0.0
 10
3.089267
 20
5.627569
 30
0.0
 10
3.157394
 20
5.588933
 30
0.0
 10
3.225522
 20
5.550268
 30
0.0
 10
3.293650
 20
5.511604
 30
0.0
 10
3.361777
 20
5.472939
 30
0.0
 10
3.429905
 20
5.434303
 30
0.0
 10
3.498033
 20
5.395639
 30
0.0
 10
3.498456
 20
5.264970
 30
0.0
 10
3.498879
 20
5.134273
 30
0.0
 10
3.499303
 20
5.003604
 30
0.0
 10
3.499726
 20
4.872935
 30
0.0
 10
3.500319
 20
4.589019
 30
0.0
 10
3.499444
 20
4.430636
 30
0.0
 10
3.496478
 20
4.360532
 30
0.0
 10
3.490785
 20
4.341341
 30
0.0
 10
3.434515
 20
4.307982
 30
0.0
 10
3.289116
 20
4.223654
 30
0.0
 10
3.076627
 20
4.101085
 30
0.0
 10
2.819089
 20
3.953032
 30
0.0
 10
2.653806
 20
3.858148
 30
0.0
 10
2.488524
 20
3.763294
 30
0.0
 10
2.323241
 20
3.668410
 30
0.0
 10
2.157959
 20
3.573556
 30
0.0
 10
2.157959
 20
3.424994
 30
0.0
 10
2.157959
 20
3.276460
 30
0.0
 10
2.157959
 20
3.127898
 30
0.0
 10
2.157959
 20
2.979365
 30
0.0
 10
2.157959
 20
2.830803
 30
0.0
 10
2.157959
 20
2.682270
 30
0.0
 10
2.157959
 20
2.533708
 30
0.0
 10
2.157959
 20
2.385174
 30
0.0
 10
2.323230
 20
2.290348
 30
0.0
 10
2.488501
 20
2.195521
 30
0.0
 10
2.653773
 20
2.100694
 30
0.0
 10
2.819044
 20
2.005868
 30
0.0
 10
3.076568
 20
1.857898
 30
0.0
 10
3.289052
 20
1.735386
 30
0.0
 10
3.434456
 20
1.651114
 30
0.0
 10
3.490740
 20
1.617756
 30
0.0
 10
3.496461
 20
1.598847
 30
0.0
 10
3.499441
 20
1.528940
 30
0.0
 10
3.500316
 20
1.370614
 30
0.0
 10
3.499723
 20
1.086275
 30
0.0
 10
3.499300
 20
0.955578
 30
0.0
 10
3.498877
 20
0.824852
 30
0.0
 10
3.498482
 20
0.694155
 30
0.0
 10
3.498058
 20
0.563458
 30
0.0
 10
3.429931
 20
0.524765
 30
0.0
 10
3.361803
 20
0.486101
 30
0.0
 10
3.293675
 20
0.447408
 30
0.0
 10
3.225548
 20
0.408744
 30
0.0
 10
3.157420
 20
0.370051
 30
0.0
 10
3.089292
 20
0.331387
 30
0.0
 10
3.021165
 20
0.292694
 30
0.0
 10
2.953037
 20
0.254030
 30
0.0
 10
2.879299
 20
0.230605
 30
0.0
 10
2.805560
 20
0.207181
 30
0.0
 10
2.731822
 20
0.183756
 30
0.0
 10
2.658084
 20
0.160332
 30
0.0
 10
2.584346
 20
0.136907
 30
0.0
 10
2.510608
 20
0.113483
 30
0.0
 10
2.436870
 20
0.090058
 30
0.0
 10
2.363132
 20
0.066634
 30
0.0
 10
2.285509
 20
0.058732
 30
0.0
 10
2.207887
 20
0.050547
 30
0.0
 10
2.130265
 20
0.042645
 30
0.0
 10
2.052643
 20
0.034461
 30
0.0
 10
1.931540
 20
0.022043
 30
0.0
 10
1.831331
 20
0.011883
 30
0.0
 10
1.762428
 20
0.005110
 30
0.0
 10
1.735247
 20
0.002287
 30
0.0
 10
1.709039
 20
0.005110
 30
0.0
 10
1.642786
 20
0.012165
 30
0.0
 10
1.546498
 20
0.022325
 30
0.0
 10
1.430185
 20
0.034743
 30
0.0
 10
1.430186
 20
0.034771
 30
0.0
 10
1.430186
 20
0.034799
 30
0.0
 10
1.430187
 20
0.034828
 30
0.0
 10
1.430160
 20
0.032654
 30
0.0
  0
ENDSEC
  0
SECTION
  2
OBJECTS
  0
DICTIONARY
  5
C
330
0
100
AcDbDictionary
  3
ACAD_GROUP
350
D
  3
ACAD_MLINESTYLE
350
17
  0
DICTIONARY
  5
D
330
C
100
AcDbDictionary
  0
DICTIONARY
  5
1A
330
C
100
AcDbDictionary
  0
DICTIONARY
  5
17
330
C
100
AcDbDictionary
  3
STANDARD
350
18
  0
DICTIONARY
  5
19
330
C
100
AcDbDictionary
  0
ENDSEC
  0
EOF
