  0
SECTION
  2
HEADER
  9
$ACADVER
  1
AC1014
  9
$HANDSEED
  5
FFFF
  9
$MEASUREMENT
 70
     1
  0
ENDSEC
  0
SECTION
  2
TABLES
  0
TABLE
  2
VPORT
  5
8
330
0
100
AcDbSymbolTable
 70
     4
  0
VPORT
  5
2E
330
8
100
AcDbSymbolTableRecord
100
AcDbViewportTableRecord
  2
*ACTIVE
 70
     0
 10
0.0
 20
0.0
 11
1.0
 21
1.0
 12
210.0
 22
148.5
 13
0.0
 23
0.0
 14
10.0
 24
10.0
 15
10.0
 25
10.0
 16
0.0
 26
0.0
 36
1.0
 17
0.0
 27
0.0
 37
0.0
 40
341.0
 41
1.24
 42
50.0
 43
0.0
 44
0.0
 50
0.0
 51
0.0
 71
     0
 72
   100
 73
     1
 74
     3
 75
     0
 76
     0
 77
     0
 78
     0
  0
ENDTAB
  0
TABLE
  2
LTYPE
  5
5
330
0
100
AcDbSymbolTable
 70
     1
  0
LTYPE
  5
14
330
5
100
AcDbSymbolTableRecord
100
AcDbLinetypeTableRecord
  2
BYBLOCK
 70
     0
  3

 72
    65
 73
     0
 40
0.0
  0
LTYPE
  5
15
330
5
100
AcDbSymbolTableRecord
100
AcDbLinetypeTableRecord
  2
BYLAYER
 70
     0
  3

 72
    65
 73
     0
 40
0.0
  0
LTYPE
  5
16
330
5
100
AcDbSymbolTableRecord
100
AcDbLinetypeTableRecord
  2
CONTINUOUS
 70
     0
  3
Solid line
 72
    65
 73
     0
 40
0.0
  0
ENDTAB
  0
TABLE
  2
LAYER
  5
2
100
AcDbSymbolTable
 70
2
  0
LAYER
  5
50
100
AcDbSymbolTableRecord
100
AcDbLayerTableRecord
  2
0
 70
0
  6
CONTINUOUS
  0
LAYER
  5
51
100
AcDbSymbolTableRecord
100
AcDbLayerTableRecord
  2
Calque_1
 70
0
  6
CONTINUOUS
  0
ENDTAB
  0
TABLE
  2
STYLE
  5
3
330
0
100
AcDbSymbolTable
 70
     1
  0
STYLE
  5
11
330
3
100
AcDbSymbolTableRecord
100
AcDbTextStyleTableRecord
  2
STANDARD
 70
     0
 40
0.0
 41
1.0
 50
0.0
 71
     0
 42
2.5
  3
txt
  4

  0
ENDTAB
  0
TABLE
  2
VIEW
  5
6
330
0
100
AcDbSymbolTable
 70
     0
  0
ENDTAB
  0
TABLE
  2
UCS
  5
7
330
0
100
AcDbSymbolTable
 70
     0
  0
ENDTAB
  0
TABLE
  2
APPID
  5
9
330
0
100
AcDbSymbolTable
 70
     2
  0
APPID
  5
12
330
9
100
AcDbSymbolTableRecord
100
AcDbRegAppTableRecord
  2
ACAD
 70
     0
  0
ENDTAB
  0
TABLE
  2
DIMSTYLE
  5
A
330
0
100
AcDbSymbolTable
 70
     1
  0
DIMSTYLE
105
27
330
A
100
AcDbSymbolTableRecord
100
AcDbDimStyleTableRecord
  2
ISO-25
 70
     0
  3

  4

  5

  6

  7

 40
1.0
 41
2.5
 42
0.625
 43
3.75
 44
1.25
 45
0.0
 46
0.0
 47
0.0
 48
0.0
140
2.5
141
2.5
142
0.0
143
0.03937007874016
144
1.0
145
0.0
146
1.0
147
0.625
 71
     0
 72
     0
 73
     0
 74
     0
 75
     0
 76
     0
 77
     1
 78
     8
170
     0
171
     3
172
     1
173
     0
174
     0
175
     0
176
     0
177
     0
178
     0
270
     2
271
     2
272
     2
273
     2
274
     3
340
11
275
     0
280
     0
281
     0
282
     0
283
     0
284
     8
285
     0
286
     0
287
     3
288
     0
  0
ENDTAB
  0
TABLE
  2
BLOCK_RECORD
  5
1
330
0
100
AcDbSymbolTable
 70
     1
  0
BLOCK_RECORD
  5
1F
330
1
100
AcDbSymbolTableRecord
100
AcDbBlockTableRecord
  2
*MODEL_SPACE
  0
BLOCK_RECORD
  5
1B
330
1
100
AcDbSymbolTableRecord
100
AcDbBlockTableRecord
  2
*PAPER_SPACE
  0
ENDTAB
  0
ENDSEC
  0
SECTION
  2
BLOCKS
  0
BLOCK
  5
20
330
1F
100
AcDbEntity
  8
0
100
AcDbBlockBegin
  2
*MODEL_SPACE
 70
     0
 10
0.0
 20
0.0
 30
0.0
  3
*MODEL_SPACE
  1

  0
ENDBLK
  5
21
330
1F
100
AcDbEntity
  8
0
100
AcDbBlockEnd
  0
BLOCK
  5
1C
330
1B
100
AcDbEntity
 67
     1
  8
0
100
AcDbBlockBegin
  2
*PAPER_SPACE
  1

  0
ENDBLK
  5
1D
330
1B
100
AcDbEntity
 67
     1
  8
0
100
AcDbBlockEnd
  0
ENDSEC
  0
SECTION
  2
ENTITIES
  0
LWPOLYLINE
  5
100
100
AcDbEntity
  8
Calque_1
 62
7
100
AcDbPolyline
 90
153
 70
1
 10
2.481765
 20
0.043294
 30
0.0
 10
2.426963
 20
0.275337
 30
0.0
 10
2.361733
 20
0.691418
 30
0.0
 10
2.311114
 20
1.139304
 30
0.0
 10
2.256801
 20
1.335477
 30
0.0
 10
2.111849
 20
1.354386
 30
0.0
 10
1.779344
 20
1.373577
 30
0.0
 10
1.384007
 20
1.377810
 30
0.0
 10
1.271412
 20
1.351281
 30
0.0
 10
1.216187
 20
1.213275
 30
0.0
 10
1.111959
 20
0.888070
 30
0.0
 10
1.041611
 20
0.707645
 30
0.0
 10
0.987197
 20
0.575170
 30
0.0
 10
0.950978
 20
0.486440
 30
0.0
 10
0.924376
 20
0.411227
 30
0.0
 10
0.903464
 20
0.359101
 30
0.0
 10
0.880922
 20
0.325940
 30
0.0
 10
0.768906
 20
0.312393
 30
0.0
 10
0.475082
 20
0.312393
 30
0.0
 10
0.284012
 20
0.315215
 30
0.0
 10
0.092943
 20
0.318038
 30
0.0
 10
0.082256
 20
0.361330
 30
0.0
 10
0.071568
 20
0.404623
 30
0.0
 10
0.048146
 20
0.597917
 30
0.0
 10
0.021846
 20
0.941015
 30
0.0
 10
0.002440
 20
1.394631
 30
0.0
 10
0.020912
 20
1.864587
 30
0.0
 10
0.072050
 20
2.487875
 30
0.0
 10
0.134823
 20
2.793578
 30
0.0
 10
0.173483
 20
2.847962
 30
0.0
 10
0.252042
 20
2.862356
 30
0.0
 10
0.328499
 20
2.859533
 30
0.0
 10
0.389449
 20
2.846551
 30
0.0
 10
0.446446
 20
2.779269
 30
0.0
 10
0.514295
 20
2.444892
 30
0.0
 10
0.552051
 20
2.273668
 30
0.0
 10
0.587428
 20
2.163291
 30
0.0
 10
0.604268
 20
2.129763
 30
0.0
 10
0.621108
 20
2.096235
 30
0.0
 10
0.919525
 20
2.096235
 30
0.0
 10
1.217943
 20
2.096235
 30
0.0
 10
1.516360
 20
2.096235
 30
0.0
 10
1.814777
 20
2.096235
 30
0.0
 10
1.838642
 20
2.125276
 30
0.0
 10
1.862507
 20
2.154345
 30
0.0
 10
1.908542
 20
2.213752
 30
0.0
 10
1.952203
 20
2.275023
 30
0.0
 10
2.081263
 20
2.463152
 30
0.0
 10
2.261346
 20
2.722006
 30
0.0
 10
2.322768
 20
2.797952
 30
0.0
 10
2.373736
 20
2.842431
 30
0.0
 10
2.567770
 20
2.859646
 30
0.0
 10
3.142010
 20
2.864726
 30
0.0
 10
3.504386
 20
2.864867
 30
0.0
 10
3.866762
 20
2.864980
 30
0.0
 10
3.948142
 20
2.782289
 30
0.0
 10
4.029522
 20
2.699598
 30
0.0
 10
4.235653
 20
2.488693
 30
0.0
 10
4.502688
 20
2.213865
 30
0.0
 10
4.813823
 20
1.894051
 30
0.0
 10
5.125982
 20
1.574971
 30
0.0
 10
5.272967
 20
1.403888
 30
0.0
 10
5.419951
 20
1.232776
 30
0.0
 10
5.523824
 20
1.224310
 30
0.0
 10
5.627697
 20
1.215843
 30
0.0
 10
5.748869
 20
1.231083
 30
0.0
 10
5.870043
 20
1.246323
 30
0.0
 10
5.893016
 20
1.303473
 30
0.0
 10
5.915989
 20
1.360623
 30
0.0
 10
5.921170
 20
1.599157
 30
0.0
 10
5.928454
 20
2.109443
 30
0.0
 10
5.934708
 20
2.709081
 30
0.0
 10
5.952042
 20
2.833287
 30
0.0
 10
6.058559
 20
2.859533
 30
0.0
 10
6.455505
 20
2.864331
 30
0.0
 10
6.791405
 20
2.860380
 30
0.0
 10
6.942712
 20
2.851067
 30
0.0
 10
7.004725
 20
2.738516
 30
0.0
 10
7.063597
 20
2.460302
 30
0.0
 10
7.097716
 20
2.246180
 30
0.0
 10
7.118138
 20
2.104871
 30
0.0
 10
7.152635
 20
1.706232
 30
0.0
 10
7.181657
 20
1.540088
 30
0.0
 10
7.292358
 20
1.517228
 30
0.0
 10
7.717414
 20
1.527952
 30
0.0
 10
7.962469
 20
1.516099
 30
0.0
 10
8.207524
 20
1.504246
 30
0.0
 10
8.232391
 20
1.562468
 30
0.0
 10
8.257260
 20
1.620691
 30
0.0
 10
8.286522
 20
1.722573
 30
0.0
 10
8.316164
 20
1.831059
 30
0.0
 10
8.367782
 20
1.968501
 30
0.0
 10
8.432514
 20
2.140516
 30
0.0
 10
8.493051
 20
2.302060
 30
0.0
 10
8.534585
 20
2.414243
 30
0.0
 10
8.631987
 20
2.542062
 30
0.0
 10
8.988526
 20
2.560688
 30
0.0
 10
9.289122
 20
2.555326
 30
0.0
 10
9.370148
 20
2.527104
 30
0.0
 10
9.431415
 20
2.206217
 30
0.0
 10
9.452441
 20
1.431291
 30
0.0
 10
9.434094
 20
0.689329
 30
0.0
 10
9.369795
 20
0.200379
 30
0.0
 10
9.315337
 20
0.027462
 30
0.0
 10
9.185407
 20
0.003755
 30
0.0
 10
9.123862
 20
0.003755
 30
0.0
 10
9.062317
 20
0.003755
 30
0.0
 10
9.048739
 20
0.046201
 30
0.0
 10
9.035162
 20
0.088676
 30
0.0
 10
9.005129
 20
0.203794
 30
0.0
 10
8.971056
 20
0.361330
 30
0.0
 10
8.914595
 20
0.676432
 30
0.0
 10
8.867392
 20
0.778342
 30
0.0
 10
8.695719
 20
0.791889
 30
0.0
 10
8.243315
 20
0.795840
 30
0.0
 10
7.953051
 20
0.798662
 30
0.0
 10
7.662787
 20
0.801484
 30
0.0
 10
7.637277
 20
0.758840
 30
0.0
 10
7.611766
 20
0.716197
 30
0.0
 10
7.519469
 20
0.569441
 30
0.0
 10
7.430736
 20
0.433382
 30
0.0
 10
7.286596
 20
0.224255
 30
0.0
 10
7.158720
 20
0.058619
 30
0.0
 10
7.134520
 20
0.031526
 30
0.0
 10
7.110319
 20
0.004432
 30
0.0
 10
6.728926
 20
0.004432
 30
0.0
 10
6.347533
 20
0.004432
 30
0.0
 10
5.966139
 20
0.004432
 30
0.0
 10
5.584746
 20
0.004432
 30
0.0
 10
5.536386
 20
0.055825
 30
0.0
 10
5.488027
 20
0.107218
 30
0.0
 10
5.003841
 20
0.607795
 30
0.0
 10
4.285656
 20
1.344056
 30
0.0
 10
4.116343
 20
1.511217
 30
0.0
 10
4.023111
 20
1.592835
 30
0.0
 10
3.951793
 20
1.624021
 30
0.0
 10
3.838488
 20
1.646599
 30
0.0
 10
3.709586
 20
1.651961
 30
0.0
 10
3.631651
 20
1.635028
 30
0.0
 10
3.595264
 20
1.541612
 30
0.0
 10
3.581548
 20
1.398017
 30
0.0
 10
3.568642
 20
0.773883
 30
0.0
 10
3.524492
 20
0.080463
 30
0.0
 10
3.519570
 20
0.042476
 30
0.0
 10
3.514648
 20
0.004489
 30
0.0
 10
3.260194
 20
0.004489
 30
0.0
 10
3.005739
 20
0.004489
 30
0.0
 10
2.751285
 20
0.004489
 30
0.0
 10
2.496831
 20
0.004489
 30
0.0
 10
2.489298
 20
0.024526
 30
0.0
 10
2.481763
 20
0.044564
 30
0.0
 10
2.481763
 20
0.044564
 30
0.0
 10
2.481765
 20
0.043294
 30
0.0
  0
ENDSEC
  0
SECTION
  2
OBJECTS
  0
DICTIONARY
  5
C
330
0
100
AcDbDictionary
  3
ACAD_GROUP
350
D
  3
ACAD_MLINESTYLE
350
17
  0
DICTIONARY
  5
D
330
C
100
AcDbDictionary
  0
DICTIONARY
  5
1A
330
C
100
AcDbDictionary
  0
DICTIONARY
  5
17
330
C
100
AcDbDictionary
  3
STANDARD
350
18
  0
DICTIONARY
  5
19
330
C
100
AcDbDictionary
  0
ENDSEC
  0
EOF
